<svg width="350" height="171" viewBox="0 0 350 171" fill="none" xmlns="http://www.w3.org/2000/svg">
   <mask id="mask1" mask-type="alpha" maskUnits="userSpaceOnUse" x="0" y="0" width="350" height="171">
      <path
         d="M0 25.6C0 16.6392 0 12.1587 1.7439 8.73615C3.27787 5.72556 5.72556 3.27787 8.73615 1.7439C12.1587 0 16.6392 0 25.6 0H324.4C333.361 0 337.841 0 341.264 1.7439C344.274 3.27787 346.722 5.72556 348.256 8.73615C350 12.1587 350 16.6392 350 25.6V145.4C350 154.361 350 158.841 348.256 162.264C346.722 165.274 344.274 167.722 341.264 169.256C337.841 171 333.361 171 324.4 171H25.6C16.6392 171 12.1587 171 8.73615 169.256C5.72556 167.722 3.27787 165.274 1.7439 162.264C0 158.841 0 154.361 0 145.4V25.6Z"
         fill="#EE3F58" />
   </mask>
   <g mask="url(#mask1)">
      <path
         d="M0 25.6C0 16.6392 0 12.1587 1.7439 8.73615C3.27787 5.72556 5.72556 3.27787 8.73615 1.7439C12.1587 0 16.6392 0 25.6 0H324.4C333.361 0 337.841 0 341.264 1.7439C344.274 3.27787 346.722 5.72556 348.256 8.73615C350 12.1587 350 16.6392 350 25.6V145.147C350 154.107 350 158.588 348.256 162.01C346.722 165.021 344.274 167.469 341.264 169.003C337.841 170.747 333.361 170.747 324.4 170.747H25.6C16.6392 170.747 12.1587 170.747 8.73615 169.003C5.72556 167.469 3.27787 165.021 1.7439 162.01C0 158.588 0 154.107 0 145.147V25.6Z"
         fill="#99B1E6" />
      <path opacity="0.15"
         d="M320.54 57.929C321.834 59.071 323.169 60.2493 324.542 61.4709C324.551 61.4792 324.561 61.4877 324.571 61.496L329.139 65.4648C329.751 65.9967 330.511 66.2625 331.27 66.2625C332.03 66.2625 332.79 65.9965 333.402 65.4648L337.97 61.496C337.979 61.4877 337.988 61.4794 337.998 61.4711C347.041 53.4273 353.822 47.2691 358.727 41.2632C364.457 34.2485 367.126 27.9061 367.126 21.3034C367.126 9.35743 357.822 3.8301e-09 345.944 3.8301e-09C340.606 3.8301e-09 335.331 2.02167 331.27 5.52614C327.208 2.02145 321.934 3.8301e-09 316.595 3.8301e-09C304.717 -0.000218602 295.413 9.35743 295.413 21.3031C295.413 35.7432 305.409 44.5691 320.54 57.929ZM318.228 26.5733H326.922V17.8288H335.616V26.5733H344.311V35.3175H335.616V44.0615H326.922V35.3175H318.228V26.5733Z"
         fill="white" />
      <path opacity="0.15"
         d="M-8.05327 110.297C-6.75999 111.439 -5.42498 112.617 -4.05171 113.839C-4.04237 113.847 -4.0328 113.856 -4.02324 113.864L0.545177 117.833C1.15726 118.365 1.91692 118.631 2.67659 118.631C3.43625 118.631 4.19613 118.365 4.80821 117.833L9.37576 113.864C9.38532 113.856 9.39467 113.848 9.40402 113.839C18.4476 105.795 25.2281 99.6373 30.1336 93.6313C35.8632 86.6167 38.5319 80.2743 38.5319 73.6715C38.5319 61.7256 29.2279 52.3682 17.3506 52.3682C12.0123 52.3682 6.73769 54.3898 2.67659 57.8943C-1.38561 54.3896 -6.66022 52.3682 -11.9987 52.3682C-23.8765 52.3679 -33.1807 61.7256 -33.1807 73.6713C-33.1807 88.1113 -23.1844 96.9373 -8.05327 110.297ZM-10.366 78.9415H-1.67187V70.197H7.02265V78.9415H15.7169V87.6857H7.02265V96.4297H-1.67187V87.6857H-10.366V78.9415Z"
         fill="white" />
      <path opacity="0.15"
         d="M47.5964 182.186C48.5036 182.997 49.4401 183.833 50.4035 184.7C50.41 184.706 50.4167 184.712 50.4234 184.718L53.6282 187.534C54.0575 187.912 54.5904 188.1 55.1233 188.1C55.6562 188.1 56.1893 187.911 56.6186 187.534L59.8227 184.718C59.8294 184.712 59.836 184.706 59.8426 184.7C66.1866 178.991 70.943 174.621 74.3842 170.359C78.4035 165.381 80.2755 160.88 80.2755 156.194C80.2755 147.716 73.7489 141.075 65.417 141.075C61.6723 141.075 57.9722 142.51 55.1233 144.997C52.2737 142.51 48.5736 141.075 44.8287 141.075C36.4966 141.075 29.9697 147.716 29.9697 156.194C29.9697 166.441 36.982 172.705 47.5964 182.186ZM45.9741 159.934H52.0729V153.728H58.1721V159.934H64.271V166.139H58.1721V172.345H52.0729V166.139H45.9741V159.934Z"
         fill="white" />
      <path opacity="0.15"
         d="M318.282 185.13C319.073 185.83 319.89 186.552 320.73 187.301C320.736 187.306 320.742 187.311 320.748 187.316L323.543 189.749C323.918 190.075 324.383 190.237 324.848 190.237C325.313 190.237 325.778 190.074 326.152 189.749L328.947 187.316C328.953 187.311 328.959 187.306 328.965 187.301C334.499 182.371 338.648 178.596 341.65 174.915C345.156 170.616 346.789 166.729 346.789 162.682C346.789 155.36 341.096 149.625 333.827 149.625C330.561 149.625 327.333 150.864 324.848 153.012C322.362 150.864 319.134 149.625 315.867 149.625C308.599 149.625 302.905 155.36 302.905 162.682C302.905 171.532 309.022 176.942 318.282 185.13ZM316.867 165.912H322.187V160.552H327.507V165.912H332.828V171.271H327.507V176.63H322.187V171.271H316.867V165.912Z"
         fill="white" />
      <path opacity="0.15"
         d="M316.883 109.262C317.327 109.667 317.785 110.085 318.256 110.518C318.26 110.521 318.263 110.524 318.266 110.527L319.834 111.936C320.044 112.124 320.305 112.219 320.566 112.219C320.827 112.219 321.088 112.124 321.298 111.936L322.866 110.527C322.869 110.524 322.872 110.521 322.875 110.518C325.98 107.664 328.308 105.479 329.992 103.348C331.958 100.859 332.875 98.6082 332.875 96.2653C332.875 92.0264 329.681 88.7061 325.603 88.7061C323.771 88.7061 321.96 89.4234 320.566 90.6669C319.172 89.4233 317.361 88.7061 315.528 88.7061C311.451 88.706 308.257 92.0264 308.257 96.2652C308.257 101.389 311.688 104.521 316.883 109.262ZM316.089 98.1353H319.073V95.0324H322.058V98.1353H325.043V101.238H322.058V104.341H319.073V101.238H316.089V98.1353Z"
         fill="white" />
      <path opacity="0.15"
         d="M52.5096 39.7928C52.9536 40.198 53.4119 40.6161 53.8833 41.0496C53.8865 41.0525 53.8898 41.0555 53.8931 41.0585L55.4613 42.4668C55.6714 42.6555 55.9322 42.7498 56.193 42.7498C56.4538 42.7498 56.7146 42.6554 56.9247 42.4668L58.4927 41.0585C58.496 41.0555 58.4992 41.0526 58.5024 41.0496C61.6069 38.1954 63.9346 36.0102 65.6185 33.8791C67.5854 31.39 68.5015 29.1395 68.5015 26.7966C68.5015 22.5577 65.3076 19.2373 61.2303 19.2373C59.3978 19.2373 57.5871 19.9547 56.193 21.1982C54.7985 19.9546 52.9878 19.2373 51.1552 19.2373C47.0778 19.2372 43.8838 22.5577 43.8838 26.7965C43.8838 31.9204 47.3153 35.0522 52.5096 39.7928ZM51.7157 28.6665H54.7002V25.5637H57.6849V28.6665H60.6695V31.7693H57.6849V34.872H54.7002V31.7693H51.7157V28.6665Z"
         fill="white" />
      <path opacity="0.15"
         d="M288.194 125.299C288.483 125.557 288.782 125.823 289.09 126.099C289.092 126.101 289.094 126.103 289.096 126.105L290.119 127.001C290.256 127.121 290.426 127.181 290.596 127.181C290.766 127.181 290.936 127.121 291.073 127.001L292.096 126.105C292.098 126.103 292.1 126.101 292.102 126.099C294.127 124.283 295.645 122.892 296.743 121.536C298.026 119.952 298.623 118.52 298.623 117.029C298.623 114.332 296.54 112.219 293.881 112.219C292.686 112.219 291.505 112.675 290.596 113.467C289.687 112.675 288.506 112.219 287.311 112.219C284.651 112.219 282.568 114.332 282.568 117.029C282.568 120.29 284.806 122.283 288.194 125.299ZM287.676 118.219H289.623V116.245H291.569V118.219H293.516V120.194H291.569V122.168H289.623V120.194H287.676V118.219Z"
         fill="white" />
   </g>
</svg>